REM DIRINDEX 1\2\3,1\2\4,1\2\5,1\2\6
REM DIRNAME folder01,folder02,folder03,folder04,folder05,folder06
TITLE ""
FILE "038 038.mp3" MP3
  TRACK 01 AUDIO
    TITLE "0:"
    INDEX 01 00:00:00
  TRACK 02 AUDIO
    TITLE "3:cjc157_1444"
    INDEX 01 00:00:13
  TRACK 03 AUDIO
    TITLE "0:"
    INDEX 01 00:01:56
  TRACK 04 AUDIO
    TITLE "4:cjc157_1445"
    INDEX 01 00:02:28
  TRACK 05 AUDIO
    TITLE "0:"
    INDEX 01 00:03:47
  TRACK 06 AUDIO
    TITLE "5:cjc157_1446"
    INDEX 01 00:04:19
  TRACK 07 AUDIO
    TITLE "0:"
    INDEX 01 00:06:31
  TRACK 08 AUDIO
    TITLE "3:cjc157_1447"
    INDEX 01 00:07:03
  TRACK 09 AUDIO
    TITLE "0:"
    INDEX 01 00:08:50
  TRACK 10 AUDIO
    TITLE "4:cjc157_1448"
    INDEX 01 00:09:22
  TRACK 11 AUDIO
    TITLE "0:"
    INDEX 01 00:10:37
  TRACK 12 AUDIO
    TITLE "5:cjc157_1449"
    INDEX 01 00:11:07
  TRACK 13 AUDIO
    TITLE "0:"
    INDEX 01 00:13:02
  TRACK 14 AUDIO
    TITLE "5:cjc157_1450"
    INDEX 01 00:13:47
  TRACK 15 AUDIO
    TITLE "0:"
    INDEX 01 00:16:36
  TRACK 16 AUDIO
    TITLE "3:cjc157_1451"
    INDEX 01 00:17:08
  TRACK 17 AUDIO
    TITLE "0:"
    INDEX 01 00:18:54
  TRACK 18 AUDIO
    TITLE "4:cjc157_1452"
    INDEX 01 00:19:26
  TRACK 19 AUDIO
    TITLE "0:"
    INDEX 01 00:20:37
  TRACK 20 AUDIO
    TITLE "5:cjc157_1453"
    INDEX 01 00:21:09
  TRACK 21 AUDIO
    TITLE "0:"
    INDEX 01 00:24:24
  TRACK 22 AUDIO
    TITLE "3:cjc157_1454"
    INDEX 01 00:24:65
  TRACK 23 AUDIO
    TITLE "0:"
    INDEX 01 00:26:42
  TRACK 24 AUDIO
    TITLE "4:cjc157_1455"
    INDEX 01 00:27:10
  TRACK 25 AUDIO
    TITLE "0:"
    INDEX 01 00:28:19
  TRACK 26 AUDIO
    TITLE "5:cjc157_1456"
    INDEX 01 00:28:68
  TRACK 27 AUDIO
    TITLE "0:"
    INDEX 01 00:31:26
  TRACK 28 AUDIO
    TITLE "5:cjc157_1457"
    INDEX 01 00:31:71
  TRACK 29 AUDIO
    TITLE "0:"
    INDEX 01 00:33:58
  TRACK 30 AUDIO
    TITLE "3:cjc157_1458"
    INDEX 01 00:34:30
  TRACK 31 AUDIO
    TITLE "0:"
    INDEX 01 00:36:05
  TRACK 32 AUDIO
    TITLE "4:cjc157_1459"
    INDEX 01 00:36:52
  TRACK 33 AUDIO
    TITLE "0:"
    INDEX 01 00:38:04
  TRACK 34 AUDIO
    TITLE "5:cjc157_1460"
    INDEX 01 00:38:47
  TRACK 35 AUDIO
    TITLE "0:"
    INDEX 01 00:41:38
  TRACK 36 AUDIO
    TITLE "3:cjc157_1461"
    INDEX 01 00:42:14
  TRACK 37 AUDIO
    TITLE "0:"
    INDEX 01 00:43:27
  TRACK 38 AUDIO
    TITLE "4:cjc157_1462"
    INDEX 01 00:44:01
  TRACK 39 AUDIO
    TITLE "0:"
    INDEX 01 00:45:14
  TRACK 40 AUDIO
    TITLE "5:cjc157_1463"
    INDEX 01 00:45:65
  TRACK 41 AUDIO
    TITLE "0:"
    INDEX 01 00:48:51
  TRACK 42 AUDIO
    TITLE "3:cjc157_1464"
    INDEX 01 00:49:21
  TRACK 43 AUDIO
    TITLE "0:"
    INDEX 01 00:50:46
  TRACK 44 AUDIO
    TITLE "4:cjc157_1465"
    INDEX 01 00:51:15
  TRACK 45 AUDIO
    TITLE "0:"
    INDEX 01 00:52:61
  TRACK 46 AUDIO
    TITLE "5:cjc157_1466"
    INDEX 01 00:53:35
  TRACK 47 AUDIO
    TITLE "0:"
    INDEX 01 00:56:57
  TRACK 48 AUDIO
    TITLE "3:cjc157_1467"
    INDEX 01 00:57:27
  TRACK 49 AUDIO
    TITLE "0:"
    INDEX 01 00:58:28
  TRACK 50 AUDIO
    TITLE "4:cjc157_1468"
    INDEX 01 00:59:06
  TRACK 51 AUDIO
    TITLE "0:"
    INDEX 01 01:00:06
  TRACK 52 AUDIO
    TITLE "5:cjc157_1469"
    INDEX 01 01:00:55
  TRACK 53 AUDIO
    TITLE "0:"
    INDEX 01 01:02:69
  TRACK 54 AUDIO
    TITLE "5:cjc157_1470"
    INDEX 01 01:03:53
  TRACK 55 AUDIO
    TITLE "0:"
    INDEX 01 01:05:26
  TRACK 56 AUDIO
    TITLE "5:cjc157_1471"
    INDEX 01 01:05:69
  TRACK 57 AUDIO
    TITLE "0:"
    INDEX 01 01:08:46
  TRACK 58 AUDIO
    TITLE "3:cjc157_1472"
    INDEX 01 01:09:16
  TRACK 59 AUDIO
    TITLE "0:"
    INDEX 01 01:10:61
  TRACK 60 AUDIO
    TITLE "4:cjc157_1473"
    INDEX 01 01:11:33
  TRACK 61 AUDIO
    TITLE "0:"
    INDEX 01 01:12:36
  TRACK 62 AUDIO
    TITLE "5:cjc157_1474"
    INDEX 01 01:13:02
  TRACK 63 AUDIO
    TITLE "0:"
    INDEX 01 01:15:15
  TRACK 64 AUDIO
    TITLE "5:cjc157_1475"
    INDEX 01 01:15:60
  TRACK 65 AUDIO
    TITLE "0:"
    INDEX 01 01:18:13
  TRACK 66 AUDIO
    TITLE "3:cjc157_1476"
    INDEX 01 01:18:58
  TRACK 67 AUDIO
    TITLE "0:"
    INDEX 01 01:20:22
  TRACK 68 AUDIO
    TITLE "4:cjc157_1477"
    INDEX 01 01:20:65
  TRACK 69 AUDIO
    TITLE "0:"
    INDEX 01 01:22:01
  TRACK 70 AUDIO
    TITLE "5:cjc157_1478"
    INDEX 01 01:22:46
  TRACK 71 AUDIO
    TITLE "0:"
    INDEX 01 01:25:35
  TRACK 72 AUDIO
    TITLE "5:cjc157_1479"
    INDEX 01 01:26:07
  TRACK 73 AUDIO
    TITLE "0:"
    INDEX 01 01:28:49
